<svg width="246" height="104" viewBox="0 0 246 104" fill="none" xmlns="http://www.w3.org/2000/svg">
<g filter="url(#filter0_d_1_112)">
<g filter="url(#filter1_b_1_112)">
<rect x="24" y="16" width="198" height="56" rx="6" fill="url(#paint0_radial_1_112)"/>
</g>
<path d="M31.9286 37.6324L49.4316 46.7354C49.6072 46.8267 49.8022 46.8744 50.0001 46.8744C50.1979 46.8744 50.3929 46.8267 50.5685 46.7354L68.0715 37.634V53.4465C68.0716 54.8103 67.5498 56.1224 66.6132 57.1137C65.6765 58.105 64.3961 58.7004 63.0345 58.7776L62.7322 58.7858H37.2679C35.9041 58.7859 34.592 58.2641 33.6007 57.3275C32.6094 56.3908 32.0141 55.1104 31.9368 53.7488L31.9286 53.4465V37.6324ZM37.2679 29.2144H62.7322C64.096 29.2143 65.4081 29.7361 66.3994 30.6727C67.3907 31.6093 67.9861 32.8897 68.0633 34.2514L68.0715 34.5536V34.8559L50.0001 44.2531L31.9286 34.8559V34.5536C31.9285 33.1898 32.4503 31.8777 33.387 30.8864C34.3236 29.8951 35.604 29.2998 36.9656 29.2226L37.2679 29.2144H62.7322H37.2679Z" fill="#FF7243"/>
<path d="M82.27 41.12C81.22 41.12 80.27 40.89 79.42 40.43C78.58 39.96 77.92 39.32 77.44 38.51C76.96 37.69 76.72 36.77 76.72 35.75C76.72 34.73 76.96 33.815 77.44 33.005C77.92 32.185 78.585 31.545 79.435 31.085C80.285 30.615 81.235 30.38 82.285 30.38C83.105 30.38 83.855 30.52 84.535 30.8C85.215 31.07 85.795 31.475 86.275 32.015L85.3 32.96C84.51 32.13 83.525 31.715 82.345 31.715C81.565 31.715 80.86 31.89 80.23 32.24C79.6 32.59 79.105 33.075 78.745 33.695C78.395 34.305 78.22 34.99 78.22 35.75C78.22 36.51 78.395 37.2 78.745 37.82C79.105 38.43 79.6 38.91 80.23 39.26C80.86 39.61 81.565 39.785 82.345 39.785C83.515 39.785 84.5 39.365 85.3 38.525L86.275 39.47C85.795 40.01 85.21 40.42 84.52 40.7C83.84 40.98 83.09 41.12 82.27 41.12ZM91.2729 41.09C90.4829 41.09 89.7729 40.915 89.1429 40.565C88.5129 40.215 88.0179 39.735 87.6579 39.125C87.3079 38.505 87.1329 37.805 87.1329 37.025C87.1329 36.245 87.3079 35.55 87.6579 34.94C88.0179 34.32 88.5129 33.84 89.1429 33.5C89.7729 33.15 90.4829 32.975 91.2729 32.975C92.0629 32.975 92.7679 33.15 93.3879 33.5C94.0179 33.84 94.5079 34.32 94.8579 34.94C95.2179 35.55 95.3979 36.245 95.3979 37.025C95.3979 37.805 95.2179 38.505 94.8579 39.125C94.5079 39.735 94.0179 40.215 93.3879 40.565C92.7679 40.915 92.0629 41.09 91.2729 41.09ZM91.2729 39.83C91.7829 39.83 92.2379 39.715 92.6379 39.485C93.0479 39.245 93.3679 38.915 93.5979 38.495C93.8279 38.065 93.9429 37.575 93.9429 37.025C93.9429 36.475 93.8279 35.99 93.5979 35.57C93.3679 35.14 93.0479 34.81 92.6379 34.58C92.2379 34.35 91.7829 34.235 91.2729 34.235C90.7629 34.235 90.3029 34.35 89.8929 34.58C89.4929 34.81 89.1729 35.14 88.9329 35.57C88.7029 35.99 88.5879 36.475 88.5879 37.025C88.5879 37.575 88.7029 38.065 88.9329 38.495C89.1729 38.915 89.4929 39.245 89.8929 39.485C90.3029 39.715 90.7629 39.83 91.2729 39.83ZM101.634 32.975C102.644 32.975 103.444 33.27 104.034 33.86C104.634 34.44 104.934 35.295 104.934 36.425V41H103.494V36.59C103.494 35.82 103.309 35.24 102.939 34.85C102.569 34.46 102.039 34.265 101.349 34.265C100.569 34.265 99.9544 34.495 99.5044 34.955C99.0544 35.405 98.8294 36.055 98.8294 36.905V41H97.3894V33.05H98.7694V34.25C99.0594 33.84 99.4494 33.525 99.9394 33.305C100.439 33.085 101.004 32.975 101.634 32.975ZM115.248 33.05V39.92C115.248 41.31 114.903 42.335 114.213 42.995C113.523 43.665 112.493 44 111.123 44C110.373 44 109.658 43.895 108.978 43.685C108.298 43.485 107.748 43.195 107.328 42.815L108.018 41.705C108.388 42.025 108.843 42.275 109.383 42.455C109.933 42.645 110.498 42.74 111.078 42.74C112.008 42.74 112.693 42.52 113.133 42.08C113.583 41.64 113.808 40.97 113.808 40.07V39.44C113.468 39.85 113.048 40.16 112.548 40.37C112.058 40.57 111.523 40.67 110.943 40.67C110.183 40.67 109.493 40.51 108.873 40.19C108.263 39.86 107.783 39.405 107.433 38.825C107.083 38.235 106.908 37.565 106.908 36.815C106.908 36.065 107.083 35.4 107.433 34.82C107.783 34.23 108.263 33.775 108.873 33.455C109.493 33.135 110.183 32.975 110.943 32.975C111.543 32.975 112.098 33.085 112.608 33.305C113.128 33.525 113.553 33.85 113.883 34.28V33.05H115.248ZM111.108 39.41C111.628 39.41 112.093 39.3 112.503 39.08C112.923 38.86 113.248 38.555 113.478 38.165C113.718 37.765 113.838 37.315 113.838 36.815C113.838 36.045 113.583 35.425 113.073 34.955C112.563 34.475 111.908 34.235 111.108 34.235C110.298 34.235 109.638 34.475 109.128 34.955C108.618 35.425 108.363 36.045 108.363 36.815C108.363 37.315 108.478 37.765 108.708 38.165C108.948 38.555 109.273 38.86 109.683 39.08C110.103 39.3 110.578 39.41 111.108 39.41ZM119.38 34.385C119.63 33.925 120 33.575 120.49 33.335C120.98 33.095 121.575 32.975 122.275 32.975V34.37C122.195 34.36 122.085 34.355 121.945 34.355C121.165 34.355 120.55 34.59 120.1 35.06C119.66 35.52 119.44 36.18 119.44 37.04V41H118V33.05H119.38V34.385ZM126.93 32.975C128.03 32.975 128.87 33.245 129.45 33.785C130.04 34.325 130.335 35.13 130.335 36.2V41H128.97V39.95C128.73 40.32 128.385 40.605 127.935 40.805C127.495 40.995 126.97 41.09 126.36 41.09C125.47 41.09 124.755 40.875 124.215 40.445C123.685 40.015 123.42 39.45 123.42 38.75C123.42 38.05 123.675 37.49 124.185 37.07C124.695 36.64 125.505 36.425 126.615 36.425H128.895V36.14C128.895 35.52 128.715 35.045 128.355 34.715C127.995 34.385 127.465 34.22 126.765 34.22C126.295 34.22 125.835 34.3 125.385 34.46C124.935 34.61 124.555 34.815 124.245 35.075L123.645 33.995C124.055 33.665 124.545 33.415 125.115 33.245C125.685 33.065 126.29 32.975 126.93 32.975ZM126.6 39.98C127.15 39.98 127.625 39.86 128.025 39.62C128.425 39.37 128.715 39.02 128.895 38.57V37.46H126.675C125.455 37.46 124.845 37.87 124.845 38.69C124.845 39.09 125 39.405 125.31 39.635C125.62 39.865 126.05 39.98 126.6 39.98ZM137.47 40.535C137.26 40.715 137 40.855 136.69 40.955C136.38 41.045 136.06 41.09 135.73 41.09C134.93 41.09 134.31 40.875 133.87 40.445C133.43 40.015 133.21 39.4 133.21 38.6V34.235H131.86V33.05H133.21V31.31H134.65V33.05H136.93V34.235H134.65V38.54C134.65 38.97 134.755 39.3 134.965 39.53C135.185 39.76 135.495 39.875 135.895 39.875C136.335 39.875 136.71 39.75 137.02 39.5L137.47 40.535ZM146.621 33.05V41H145.256V39.8C144.966 40.21 144.581 40.53 144.101 40.76C143.631 40.98 143.116 41.09 142.556 41.09C141.496 41.09 140.661 40.8 140.051 40.22C139.441 39.63 139.136 38.765 139.136 37.625V33.05H140.576V37.46C140.576 38.23 140.761 38.815 141.131 39.215C141.501 39.605 142.031 39.8 142.721 39.8C143.481 39.8 144.081 39.57 144.521 39.11C144.961 38.65 145.181 38 145.181 37.16V33.05H146.621ZM149.362 29.87H150.802V41H149.362V29.87ZM156.447 32.975C157.547 32.975 158.387 33.245 158.967 33.785C159.557 34.325 159.852 35.13 159.852 36.2V41H158.487V39.95C158.247 40.32 157.902 40.605 157.452 40.805C157.012 40.995 156.487 41.09 155.877 41.09C154.987 41.09 154.272 40.875 153.732 40.445C153.202 40.015 152.937 39.45 152.937 38.75C152.937 38.05 153.192 37.49 153.702 37.07C154.212 36.64 155.022 36.425 156.132 36.425H158.412V36.14C158.412 35.52 158.232 35.045 157.872 34.715C157.512 34.385 156.982 34.22 156.282 34.22C155.812 34.22 155.352 34.3 154.902 34.46C154.452 34.61 154.072 34.815 153.762 35.075L153.162 33.995C153.572 33.665 154.062 33.415 154.632 33.245C155.202 33.065 155.807 32.975 156.447 32.975ZM156.117 39.98C156.667 39.98 157.142 39.86 157.542 39.62C157.942 39.37 158.232 39.02 158.412 38.57V37.46H156.192C154.972 37.46 154.362 37.87 154.362 38.69C154.362 39.09 154.517 39.405 154.827 39.635C155.137 39.865 155.567 39.98 156.117 39.98ZM166.986 40.535C166.776 40.715 166.516 40.855 166.206 40.955C165.896 41.045 165.576 41.09 165.246 41.09C164.446 41.09 163.826 40.875 163.386 40.445C162.946 40.015 162.726 39.4 162.726 38.6V34.235H161.376V33.05H162.726V31.31H164.166V33.05H166.446V34.235H164.166V38.54C164.166 38.97 164.271 39.3 164.481 39.53C164.701 39.76 165.011 39.875 165.411 39.875C165.851 39.875 166.226 39.75 166.536 39.5L166.986 40.535ZM168.727 33.05H170.167V41H168.727V33.05ZM169.447 31.52C169.167 31.52 168.932 31.43 168.742 31.25C168.562 31.07 168.472 30.85 168.472 30.59C168.472 30.33 168.562 30.11 168.742 29.93C168.932 29.74 169.167 29.645 169.447 29.645C169.727 29.645 169.957 29.735 170.137 29.915C170.327 30.085 170.422 30.3 170.422 30.56C170.422 30.83 170.327 31.06 170.137 31.25C169.957 31.43 169.727 31.52 169.447 31.52ZM176.322 41.09C175.532 41.09 174.822 40.915 174.192 40.565C173.562 40.215 173.067 39.735 172.707 39.125C172.357 38.505 172.182 37.805 172.182 37.025C172.182 36.245 172.357 35.55 172.707 34.94C173.067 34.32 173.562 33.84 174.192 33.5C174.822 33.15 175.532 32.975 176.322 32.975C177.112 32.975 177.817 33.15 178.437 33.5C179.067 33.84 179.557 34.32 179.907 34.94C180.267 35.55 180.447 36.245 180.447 37.025C180.447 37.805 180.267 38.505 179.907 39.125C179.557 39.735 179.067 40.215 178.437 40.565C177.817 40.915 177.112 41.09 176.322 41.09ZM176.322 39.83C176.832 39.83 177.287 39.715 177.687 39.485C178.097 39.245 178.417 38.915 178.647 38.495C178.877 38.065 178.992 37.575 178.992 37.025C178.992 36.475 178.877 35.99 178.647 35.57C178.417 35.14 178.097 34.81 177.687 34.58C177.287 34.35 176.832 34.235 176.322 34.235C175.812 34.235 175.352 34.35 174.942 34.58C174.542 34.81 174.222 35.14 173.982 35.57C173.752 35.99 173.637 36.475 173.637 37.025C173.637 37.575 173.752 38.065 173.982 38.495C174.222 38.915 174.542 39.245 174.942 39.485C175.352 39.715 175.812 39.83 176.322 39.83ZM186.683 32.975C187.693 32.975 188.493 33.27 189.083 33.86C189.683 34.44 189.983 35.295 189.983 36.425V41H188.543V36.59C188.543 35.82 188.358 35.24 187.988 34.85C187.618 34.46 187.088 34.265 186.398 34.265C185.618 34.265 185.003 34.495 184.553 34.955C184.103 35.405 183.878 36.055 183.878 36.905V41H182.438V33.05H183.818V34.25C184.108 33.84 184.498 33.525 184.988 33.305C185.488 33.085 186.053 32.975 186.683 32.975ZM192.453 30.5H194.148L193.863 37.685H192.723L192.453 30.5ZM193.308 41.09C193.028 41.09 192.793 41 192.603 40.82C192.413 40.63 192.318 40.4 192.318 40.13C192.318 39.86 192.413 39.635 192.603 39.455C192.793 39.265 193.028 39.17 193.308 39.17C193.588 39.17 193.818 39.265 193.998 39.455C194.178 39.635 194.268 39.86 194.268 40.13C194.268 40.4 194.173 40.63 193.983 40.82C193.803 41 193.578 41.09 193.308 41.09Z" fill="#3D3D3D"/>
<path d="M78.832 53.064V55H78.248V53.064L76.008 49.4H76.64L78.56 52.544L80.48 49.4H81.072L78.832 53.064ZM83.1136 55.04C82.7082 55.04 82.3429 54.9493 82.0176 54.768C81.6922 54.5813 81.4362 54.3253 81.2496 54C81.0629 53.6747 80.9696 53.3067 80.9696 52.896C80.9696 52.4853 81.0629 52.1173 81.2496 51.792C81.4362 51.4667 81.6922 51.2133 82.0176 51.032C82.3429 50.8507 82.7082 50.76 83.1136 50.76C83.5189 50.76 83.8842 50.8507 84.2096 51.032C84.5349 51.2133 84.7882 51.4667 84.9696 51.792C85.1562 52.1173 85.2496 52.4853 85.2496 52.896C85.2496 53.3067 85.1562 53.6747 84.9696 54C84.7882 54.3253 84.5349 54.5813 84.2096 54.768C83.8842 54.9493 83.5189 55.04 83.1136 55.04ZM83.1136 54.536C83.4122 54.536 83.6789 54.4693 83.9136 54.336C84.1536 54.1973 84.3402 54.0027 84.4736 53.752C84.6069 53.5013 84.6736 53.216 84.6736 52.896C84.6736 52.576 84.6069 52.2907 84.4736 52.04C84.3402 51.7893 84.1536 51.5973 83.9136 51.464C83.6789 51.3253 83.4122 51.256 83.1136 51.256C82.8149 51.256 82.5456 51.3253 82.3056 51.464C82.0709 51.5973 81.8842 51.7893 81.7456 52.04C81.6122 52.2907 81.5456 52.576 81.5456 52.896C81.5456 53.216 81.6122 53.5013 81.7456 53.752C81.8842 54.0027 82.0709 54.1973 82.3056 54.336C82.5456 54.4693 82.8149 54.536 83.1136 54.536ZM90.2012 50.792V55H89.6572V54.232C89.5079 54.488 89.3025 54.688 89.0412 54.832C88.7799 54.9707 88.4812 55.04 88.1452 55.04C87.5959 55.04 87.1612 54.888 86.8412 54.584C86.5265 54.2747 86.3692 53.824 86.3692 53.232V50.792H86.9372V53.176C86.9372 53.6187 87.0465 53.9547 87.2652 54.184C87.4839 54.4133 87.7959 54.528 88.2012 54.528C88.6439 54.528 88.9932 54.3947 89.2492 54.128C89.5052 53.856 89.6332 53.48 89.6332 53V50.792H90.2012ZM92.336 51.616C92.4693 51.3333 92.6667 51.12 92.928 50.976C93.1947 50.832 93.5227 50.76 93.912 50.76V51.312L93.776 51.304C93.3333 51.304 92.9867 51.44 92.736 51.712C92.4853 51.984 92.36 52.3653 92.36 52.856V55H91.792V50.792H92.336V51.616ZM100.729 53.504H97.6087L96.9367 55H96.3207L98.8807 49.4H99.4647L102.025 55H101.401L100.729 53.504ZM100.513 53.024L99.1687 50.016L97.8247 53.024H100.513ZM106.632 49.064V55H106.088V54.168C105.917 54.4507 105.691 54.6667 105.408 54.816C105.131 54.9653 104.816 55.04 104.464 55.04C104.069 55.04 103.712 54.9493 103.392 54.768C103.072 54.5867 102.821 54.3333 102.64 54.008C102.459 53.6827 102.368 53.312 102.368 52.896C102.368 52.48 102.459 52.1093 102.64 51.784C102.821 51.4587 103.072 51.208 103.392 51.032C103.712 50.8507 104.069 50.76 104.464 50.76C104.805 50.76 105.112 50.832 105.384 50.976C105.661 51.1147 105.888 51.32 106.064 51.592V49.064H106.632ZM104.512 54.536C104.805 54.536 105.069 54.4693 105.304 54.336C105.544 54.1973 105.731 54.0027 105.864 53.752C106.003 53.5013 106.072 53.216 106.072 52.896C106.072 52.576 106.003 52.2907 105.864 52.04C105.731 51.7893 105.544 51.5973 105.304 51.464C105.069 51.3253 104.805 51.256 104.512 51.256C104.213 51.256 103.944 51.3253 103.704 51.464C103.469 51.5973 103.283 51.7893 103.144 52.04C103.011 52.2907 102.944 52.576 102.944 52.896C102.944 53.216 103.011 53.5013 103.144 53.752C103.283 54.0027 103.469 54.1973 103.704 54.336C103.944 54.4693 104.213 54.536 104.512 54.536ZM112.054 49.064V55H111.51V54.168C111.339 54.4507 111.113 54.6667 110.83 54.816C110.553 54.9653 110.238 55.04 109.886 55.04C109.491 55.04 109.134 54.9493 108.814 54.768C108.494 54.5867 108.243 54.3333 108.062 54.008C107.881 53.6827 107.79 53.312 107.79 52.896C107.79 52.48 107.881 52.1093 108.062 51.784C108.243 51.4587 108.494 51.208 108.814 51.032C109.134 50.8507 109.491 50.76 109.886 50.76C110.227 50.76 110.534 50.832 110.806 50.976C111.083 51.1147 111.31 51.32 111.486 51.592V49.064H112.054ZM109.934 54.536C110.227 54.536 110.491 54.4693 110.726 54.336C110.966 54.1973 111.153 54.0027 111.286 53.752C111.425 53.5013 111.494 53.216 111.494 52.896C111.494 52.576 111.425 52.2907 111.286 52.04C111.153 51.7893 110.966 51.5973 110.726 51.464C110.491 51.3253 110.227 51.256 109.934 51.256C109.635 51.256 109.366 51.3253 109.126 51.464C108.891 51.5973 108.705 51.7893 108.566 52.04C108.433 52.2907 108.366 52.576 108.366 52.896C108.366 53.216 108.433 53.5013 108.566 53.752C108.705 54.0027 108.891 54.1973 109.126 54.336C109.366 54.4693 109.635 54.536 109.934 54.536ZM118.884 50.76C119.412 50.76 119.825 50.912 120.124 51.216C120.428 51.52 120.58 51.968 120.58 52.56V55H120.012V52.616C120.012 52.1787 119.905 51.8453 119.692 51.616C119.484 51.3867 119.188 51.272 118.804 51.272C118.366 51.272 118.022 51.408 117.772 51.68C117.521 51.9467 117.396 52.3173 117.396 52.792V55H116.828V52.616C116.828 52.1787 116.721 51.8453 116.508 51.616C116.3 51.3867 116.001 51.272 115.612 51.272C115.18 51.272 114.836 51.408 114.58 51.68C114.329 51.9467 114.204 52.3173 114.204 52.792V55H113.636V50.792H114.18V51.56C114.329 51.304 114.537 51.1067 114.804 50.968C115.07 50.8293 115.377 50.76 115.724 50.76C116.076 50.76 116.38 50.8347 116.636 50.984C116.897 51.1333 117.092 51.3547 117.22 51.648C117.374 51.3707 117.596 51.1547 117.884 51C118.177 50.84 118.51 50.76 118.884 50.76ZM122.12 50.792H122.688V55H122.12V50.792ZM122.408 49.872C122.291 49.872 122.192 49.832 122.112 49.752C122.032 49.672 121.992 49.576 121.992 49.464C121.992 49.3573 122.032 49.264 122.112 49.184C122.192 49.104 122.291 49.064 122.408 49.064C122.525 49.064 122.624 49.104 122.704 49.184C122.784 49.2587 122.824 49.3493 122.824 49.456C122.824 49.5733 122.784 49.672 122.704 49.752C122.624 49.832 122.525 49.872 122.408 49.872ZM125.397 55.04C125.055 55.04 124.727 54.992 124.413 54.896C124.103 54.7947 123.861 54.6693 123.685 54.52L123.941 54.072C124.117 54.2107 124.338 54.3253 124.605 54.416C124.871 54.5013 125.149 54.544 125.437 54.544C125.821 54.544 126.103 54.4853 126.285 54.368C126.471 54.2453 126.565 54.0747 126.565 53.856C126.565 53.7013 126.514 53.5813 126.413 53.496C126.311 53.4053 126.183 53.3387 126.029 53.296C125.874 53.248 125.669 53.2027 125.413 53.16C125.071 53.096 124.797 53.032 124.589 52.968C124.381 52.8987 124.202 52.784 124.053 52.624C123.909 52.464 123.837 52.2427 123.837 51.96C123.837 51.608 123.983 51.32 124.277 51.096C124.57 50.872 124.978 50.76 125.501 50.76C125.773 50.76 126.045 50.7973 126.317 50.872C126.589 50.9413 126.813 51.0347 126.989 51.152L126.741 51.608C126.394 51.368 125.981 51.248 125.501 51.248C125.138 51.248 124.863 51.312 124.677 51.44C124.495 51.568 124.405 51.736 124.405 51.944C124.405 52.104 124.455 52.232 124.557 52.328C124.663 52.424 124.794 52.496 124.949 52.544C125.103 52.5867 125.317 52.632 125.589 52.68C125.925 52.744 126.194 52.808 126.397 52.872C126.599 52.936 126.773 53.0453 126.917 53.2C127.061 53.3547 127.133 53.568 127.133 53.84C127.133 54.208 126.978 54.5013 126.669 54.72C126.365 54.9333 125.941 55.04 125.397 55.04ZM129.311 55.04C128.969 55.04 128.641 54.992 128.327 54.896C128.017 54.7947 127.775 54.6693 127.599 54.52L127.855 54.072C128.031 54.2107 128.252 54.3253 128.519 54.416C128.785 54.5013 129.063 54.544 129.351 54.544C129.735 54.544 130.017 54.4853 130.199 54.368C130.385 54.2453 130.479 54.0747 130.479 53.856C130.479 53.7013 130.428 53.5813 130.327 53.496C130.225 53.4053 130.097 53.3387 129.943 53.296C129.788 53.248 129.583 53.2027 129.327 53.16C128.985 53.096 128.711 53.032 128.503 52.968C128.295 52.8987 128.116 52.784 127.967 52.624C127.823 52.464 127.751 52.2427 127.751 51.96C127.751 51.608 127.897 51.32 128.191 51.096C128.484 50.872 128.892 50.76 129.415 50.76C129.687 50.76 129.959 50.7973 130.231 50.872C130.503 50.9413 130.727 51.0347 130.903 51.152L130.655 51.608C130.308 51.368 129.895 51.248 129.415 51.248C129.052 51.248 128.777 51.312 128.591 51.44C128.409 51.568 128.319 51.736 128.319 51.944C128.319 52.104 128.369 52.232 128.471 52.328C128.577 52.424 128.708 52.496 128.863 52.544C129.017 52.5867 129.231 52.632 129.503 52.68C129.839 52.744 130.108 52.808 130.311 52.872C130.513 52.936 130.687 53.0453 130.831 53.2C130.975 53.3547 131.047 53.568 131.047 53.84C131.047 54.208 130.892 54.5013 130.583 54.72C130.279 54.9333 129.855 55.04 129.311 55.04ZM132.097 50.792H132.665V55H132.097V50.792ZM132.385 49.872C132.267 49.872 132.169 49.832 132.089 49.752C132.009 49.672 131.969 49.576 131.969 49.464C131.969 49.3573 132.009 49.264 132.089 49.184C132.169 49.104 132.267 49.064 132.385 49.064C132.502 49.064 132.601 49.104 132.681 49.184C132.761 49.2587 132.801 49.3493 132.801 49.456C132.801 49.5733 132.761 49.672 132.681 49.752C132.601 49.832 132.502 49.872 132.385 49.872ZM135.965 55.04C135.56 55.04 135.194 54.9493 134.869 54.768C134.544 54.5813 134.288 54.3253 134.101 54C133.914 53.6747 133.821 53.3067 133.821 52.896C133.821 52.4853 133.914 52.1173 134.101 51.792C134.288 51.4667 134.544 51.2133 134.869 51.032C135.194 50.8507 135.56 50.76 135.965 50.76C136.37 50.76 136.736 50.8507 137.061 51.032C137.386 51.2133 137.64 51.4667 137.821 51.792C138.008 52.1173 138.101 52.4853 138.101 52.896C138.101 53.3067 138.008 53.6747 137.821 54C137.64 54.3253 137.386 54.5813 137.061 54.768C136.736 54.9493 136.37 55.04 135.965 55.04ZM135.965 54.536C136.264 54.536 136.53 54.4693 136.765 54.336C137.005 54.1973 137.192 54.0027 137.325 53.752C137.458 53.5013 137.525 53.216 137.525 52.896C137.525 52.576 137.458 52.2907 137.325 52.04C137.192 51.7893 137.005 51.5973 136.765 51.464C136.53 51.3253 136.264 51.256 135.965 51.256C135.666 51.256 135.397 51.3253 135.157 51.464C134.922 51.5973 134.736 51.7893 134.597 52.04C134.464 52.2907 134.397 52.576 134.397 52.896C134.397 53.216 134.464 53.5013 134.597 53.752C134.736 54.0027 134.922 54.1973 135.157 54.336C135.397 54.4693 135.666 54.536 135.965 54.536ZM141.405 50.76C141.933 50.76 142.351 50.9147 142.661 51.224C142.975 51.528 143.133 51.9733 143.133 52.56V55H142.565V52.616C142.565 52.1787 142.455 51.8453 142.237 51.616C142.018 51.3867 141.706 51.272 141.301 51.272C140.847 51.272 140.487 51.408 140.221 51.68C139.959 51.9467 139.829 52.3173 139.829 52.792V55H139.261V50.792H139.805V51.568C139.959 51.312 140.173 51.1147 140.445 50.976C140.722 50.832 141.042 50.76 141.405 50.76ZM146.889 49.4H147.481V55H146.889V49.4ZM150.311 55.04C149.969 55.04 149.641 54.992 149.327 54.896C149.017 54.7947 148.775 54.6693 148.599 54.52L148.855 54.072C149.031 54.2107 149.252 54.3253 149.519 54.416C149.785 54.5013 150.063 54.544 150.351 54.544C150.735 54.544 151.017 54.4853 151.199 54.368C151.385 54.2453 151.479 54.0747 151.479 53.856C151.479 53.7013 151.428 53.5813 151.327 53.496C151.225 53.4053 151.097 53.3387 150.943 53.296C150.788 53.248 150.583 53.2027 150.327 53.16C149.985 53.096 149.711 53.032 149.503 52.968C149.295 52.8987 149.116 52.784 148.967 52.624C148.823 52.464 148.751 52.2427 148.751 51.96C148.751 51.608 148.897 51.32 149.191 51.096C149.484 50.872 149.892 50.76 150.415 50.76C150.687 50.76 150.959 50.7973 151.231 50.872C151.503 50.9413 151.727 51.0347 151.903 51.152L151.655 51.608C151.308 51.368 150.895 51.248 150.415 51.248C150.052 51.248 149.777 51.312 149.591 51.44C149.409 51.568 149.319 51.736 149.319 51.944C149.319 52.104 149.369 52.232 149.471 52.328C149.577 52.424 149.708 52.496 149.863 52.544C150.017 52.5867 150.231 52.632 150.503 52.68C150.839 52.744 151.108 52.808 151.311 52.872C151.513 52.936 151.687 53.0453 151.831 53.2C151.975 53.3547 152.047 53.568 152.047 53.84C152.047 54.208 151.892 54.5013 151.583 54.72C151.279 54.9333 150.855 55.04 150.311 55.04ZM157.742 55.048C157.188 55.048 156.686 54.9253 156.238 54.68C155.796 54.4347 155.446 54.096 155.19 53.664C154.94 53.2267 154.814 52.7387 154.814 52.2C154.814 51.6613 154.94 51.176 155.19 50.744C155.446 50.3067 155.798 49.9653 156.246 49.72C156.694 49.4747 157.196 49.352 157.75 49.352C158.166 49.352 158.55 49.4213 158.902 49.56C159.254 49.6987 159.553 49.9013 159.798 50.168L159.422 50.544C158.985 50.1013 158.433 49.88 157.766 49.88C157.324 49.88 156.921 49.9813 156.558 50.184C156.196 50.3867 155.91 50.664 155.702 51.016C155.5 51.368 155.398 51.7627 155.398 52.2C155.398 52.6373 155.5 53.032 155.702 53.384C155.91 53.736 156.196 54.0133 156.558 54.216C156.921 54.4187 157.324 54.52 157.766 54.52C158.438 54.52 158.99 54.296 159.422 53.848L159.798 54.224C159.553 54.4907 159.252 54.696 158.894 54.84C158.542 54.9787 158.158 55.048 157.742 55.048ZM162.473 55.04C162.068 55.04 161.702 54.9493 161.377 54.768C161.052 54.5813 160.796 54.3253 160.609 54C160.422 53.6747 160.329 53.3067 160.329 52.896C160.329 52.4853 160.422 52.1173 160.609 51.792C160.796 51.4667 161.052 51.2133 161.377 51.032C161.702 50.8507 162.068 50.76 162.473 50.76C162.878 50.76 163.244 50.8507 163.569 51.032C163.894 51.2133 164.148 51.4667 164.329 51.792C164.516 52.1173 164.609 52.4853 164.609 52.896C164.609 53.3067 164.516 53.6747 164.329 54C164.148 54.3253 163.894 54.5813 163.569 54.768C163.244 54.9493 162.878 55.04 162.473 55.04ZM162.473 54.536C162.772 54.536 163.038 54.4693 163.273 54.336C163.513 54.1973 163.7 54.0027 163.833 53.752C163.966 53.5013 164.033 53.216 164.033 52.896C164.033 52.576 163.966 52.2907 163.833 52.04C163.7 51.7893 163.513 51.5973 163.273 51.464C163.038 51.3253 162.772 51.256 162.473 51.256C162.174 51.256 161.905 51.3253 161.665 51.464C161.43 51.5973 161.244 51.7893 161.105 52.04C160.972 52.2907 160.905 52.576 160.905 52.896C160.905 53.216 160.972 53.5013 161.105 53.752C161.244 54.0027 161.43 54.1973 161.665 54.336C161.905 54.4693 162.174 54.536 162.473 54.536ZM171.017 50.76C171.545 50.76 171.958 50.912 172.257 51.216C172.561 51.52 172.713 51.968 172.713 52.56V55H172.145V52.616C172.145 52.1787 172.038 51.8453 171.825 51.616C171.617 51.3867 171.321 51.272 170.937 51.272C170.499 51.272 170.155 51.408 169.905 51.68C169.654 51.9467 169.529 52.3173 169.529 52.792V55H168.961V52.616C168.961 52.1787 168.854 51.8453 168.641 51.616C168.433 51.3867 168.134 51.272 167.745 51.272C167.313 51.272 166.969 51.408 166.713 51.68C166.462 51.9467 166.337 52.3173 166.337 52.792V55H165.769V50.792H166.313V51.56C166.462 51.304 166.67 51.1067 166.937 50.968C167.203 50.8293 167.51 50.76 167.857 50.76C168.209 50.76 168.513 50.8347 168.769 50.984C169.03 51.1333 169.225 51.3547 169.353 51.648C169.507 51.3707 169.729 51.1547 170.017 51C170.31 50.84 170.643 50.76 171.017 50.76ZM176.421 50.76C176.816 50.76 177.173 50.8507 177.493 51.032C177.813 51.208 178.064 51.4587 178.245 51.784C178.426 52.1093 178.517 52.48 178.517 52.896C178.517 53.3173 178.426 53.6907 178.245 54.016C178.064 54.3413 177.813 54.5947 177.493 54.776C177.178 54.952 176.821 55.04 176.421 55.04C176.08 55.04 175.77 54.9707 175.493 54.832C175.221 54.688 174.997 54.48 174.821 54.208V56.552H174.253V50.792H174.797V51.624C174.968 51.3467 175.192 51.1333 175.469 50.984C175.752 50.8347 176.069 50.76 176.421 50.76ZM176.381 54.536C176.674 54.536 176.941 54.4693 177.181 54.336C177.421 54.1973 177.608 54.0027 177.741 53.752C177.88 53.5013 177.949 53.216 177.949 52.896C177.949 52.576 177.88 52.2933 177.741 52.048C177.608 51.7973 177.421 51.6027 177.181 51.464C176.941 51.3253 176.674 51.256 176.381 51.256C176.082 51.256 175.813 51.3253 175.573 51.464C175.338 51.6027 175.152 51.7973 175.013 52.048C174.88 52.2933 174.813 52.576 174.813 52.896C174.813 53.216 174.88 53.5013 175.013 53.752C175.152 54.0027 175.338 54.1973 175.573 54.336C175.813 54.4693 176.082 54.536 176.381 54.536ZM179.675 49.064H180.243V55H179.675V49.064ZM185.487 53.072H181.967C181.999 53.5093 182.167 53.864 182.471 54.136C182.775 54.4027 183.159 54.536 183.623 54.536C183.885 54.536 184.125 54.4907 184.343 54.4C184.562 54.304 184.751 54.1653 184.911 53.984L185.231 54.352C185.045 54.576 184.81 54.7467 184.527 54.864C184.25 54.9813 183.943 55.04 183.607 55.04C183.175 55.04 182.791 54.9493 182.455 54.768C182.125 54.5813 181.866 54.3253 181.679 54C181.493 53.6747 181.399 53.3067 181.399 52.896C181.399 52.4853 181.487 52.1173 181.663 51.792C181.845 51.4667 182.09 51.2133 182.399 51.032C182.714 50.8507 183.066 50.76 183.455 50.76C183.845 50.76 184.194 50.8507 184.503 51.032C184.813 51.2133 185.055 51.4667 185.231 51.792C185.407 52.112 185.495 52.48 185.495 52.896L185.487 53.072ZM183.455 51.248C183.05 51.248 182.709 51.3787 182.431 51.64C182.159 51.896 182.005 52.232 181.967 52.648H184.951C184.914 52.232 184.757 51.896 184.479 51.64C184.207 51.3787 183.866 51.248 183.455 51.248ZM188.867 54.744C188.761 54.84 188.627 54.9147 188.467 54.968C188.313 55.016 188.15 55.04 187.979 55.04C187.585 55.04 187.281 54.9333 187.067 54.72C186.854 54.5067 186.747 54.2053 186.747 53.816V51.272H185.995V50.792H186.747V49.872H187.315V50.792H188.595V51.272H187.315V53.784C187.315 54.0347 187.377 54.2267 187.499 54.36C187.627 54.488 187.809 54.552 188.043 54.552C188.161 54.552 188.273 54.5333 188.379 54.496C188.491 54.4587 188.587 54.4053 188.667 54.336L188.867 54.744ZM193.417 53.072H189.897C189.929 53.5093 190.097 53.864 190.401 54.136C190.705 54.4027 191.089 54.536 191.553 54.536C191.814 54.536 192.054 54.4907 192.273 54.4C192.492 54.304 192.681 54.1653 192.841 53.984L193.161 54.352C192.974 54.576 192.74 54.7467 192.457 54.864C192.18 54.9813 191.873 55.04 191.537 55.04C191.105 55.04 190.721 54.9493 190.385 54.768C190.054 54.5813 189.796 54.3253 189.609 54C189.422 53.6747 189.329 53.3067 189.329 52.896C189.329 52.4853 189.417 52.1173 189.593 51.792C189.774 51.4667 190.02 51.2133 190.329 51.032C190.644 50.8507 190.996 50.76 191.385 50.76C191.774 50.76 192.124 50.8507 192.433 51.032C192.742 51.2133 192.985 51.4667 193.161 51.792C193.337 52.112 193.425 52.48 193.425 52.896L193.417 53.072ZM191.385 51.248C190.98 51.248 190.638 51.3787 190.361 51.64C190.089 51.896 189.934 52.232 189.897 52.648H192.881C192.844 52.232 192.686 51.896 192.409 51.64C192.137 51.3787 191.796 51.248 191.385 51.248ZM198.421 49.064V55H197.877V54.168C197.706 54.4507 197.48 54.6667 197.197 54.816C196.92 54.9653 196.605 55.04 196.253 55.04C195.858 55.04 195.501 54.9493 195.181 54.768C194.861 54.5867 194.61 54.3333 194.429 54.008C194.248 53.6827 194.157 53.312 194.157 52.896C194.157 52.48 194.248 52.1093 194.429 51.784C194.61 51.4587 194.861 51.208 195.181 51.032C195.501 50.8507 195.858 50.76 196.253 50.76C196.594 50.76 196.901 50.832 197.173 50.976C197.45 51.1147 197.677 51.32 197.853 51.592V49.064H198.421ZM196.301 54.536C196.594 54.536 196.858 54.4693 197.093 54.336C197.333 54.1973 197.52 54.0027 197.653 53.752C197.792 53.5013 197.861 53.216 197.861 52.896C197.861 52.576 197.792 52.2907 197.653 52.04C197.52 51.7893 197.333 51.5973 197.093 51.464C196.858 51.3253 196.594 51.256 196.301 51.256C196.002 51.256 195.733 51.3253 195.493 51.464C195.258 51.5973 195.072 51.7893 194.933 52.04C194.8 52.2907 194.733 52.576 194.733 52.896C194.733 53.216 194.8 53.5013 194.933 53.752C195.072 54.0027 195.258 54.1973 195.493 54.336C195.733 54.4693 196.002 54.536 196.301 54.536Z" fill="#3D3D3D"/>
<g clip-path="url(#clip0_1_112)">
<path fill-rule="evenodd" clip-rule="evenodd" d="M205 30.5C201.963 30.5 199.5 32.9625 199.5 36C199.5 39.0375 201.963 41.5 205 41.5C208.038 41.5 210.5 39.0375 210.5 36C210.5 32.9625 208.038 30.5 205 30.5ZM207.384 35.07C207.428 35.0198 207.461 34.9614 207.482 34.8981C207.503 34.8348 207.511 34.768 207.506 34.7015C207.501 34.635 207.482 34.5703 207.452 34.5111C207.421 34.4518 207.379 34.3994 207.328 34.3567C207.277 34.314 207.217 34.282 207.154 34.2625C207.09 34.2431 207.023 34.2366 206.957 34.2434C206.89 34.2502 206.826 34.2703 206.767 34.3023C206.709 34.3344 206.658 34.3778 206.616 34.43L204.466 37.0095L203.354 35.8965C203.259 35.8054 203.133 35.755 203.002 35.7562C202.871 35.7573 202.745 35.8099 202.653 35.9026C202.56 35.9953 202.507 36.1207 202.506 36.2518C202.505 36.3829 202.555 36.5092 202.647 36.6035L204.147 38.1035C204.196 38.1526 204.255 38.1909 204.319 38.216C204.384 38.2411 204.453 38.2525 204.523 38.2493C204.592 38.2462 204.66 38.2286 204.722 38.1977C204.784 38.1668 204.84 38.1233 204.884 38.07L207.384 35.07Z" fill="#3CD278"/>
</g>
</g>
<defs>
<filter id="filter0_d_1_112" x="0" y="0" width="246" height="104" filterUnits="userSpaceOnUse" color-interpolation-filters="sRGB">
<feFlood flood-opacity="0" result="BackgroundImageFix"/>
<feColorMatrix in="SourceAlpha" type="matrix" values="0 0 0 0 0 0 0 0 0 0 0 0 0 0 0 0 0 0 127 0" result="hardAlpha"/>
<feOffset dy="8"/>
<feGaussianBlur stdDeviation="12"/>
<feColorMatrix type="matrix" values="0 0 0 0 0.1216 0 0 0 0 0.1216 0 0 0 0 0.1984 0 0 0 0.06 0"/>
<feBlend mode="normal" in2="BackgroundImageFix" result="effect1_dropShadow_1_112"/>
<feBlend mode="normal" in="SourceGraphic" in2="effect1_dropShadow_1_112" result="shape"/>
</filter>
<filter id="filter1_b_1_112" x="0" y="-8" width="246" height="104" filterUnits="userSpaceOnUse" color-interpolation-filters="sRGB">
<feFlood flood-opacity="0" result="BackgroundImageFix"/>
<feGaussianBlur in="BackgroundImageFix" stdDeviation="12"/>
<feComposite in2="SourceAlpha" operator="in" result="effect1_backgroundBlur_1_112"/>
<feBlend mode="normal" in="SourceGraphic" in2="effect1_backgroundBlur_1_112" result="shape"/>
</filter>
<radialGradient id="paint0_radial_1_112" cx="0" cy="0" r="1" gradientUnits="userSpaceOnUse" gradientTransform="translate(123 44) rotate(90) scale(28 99)">
<stop stop-color="white" stop-opacity="0.49"/>
<stop offset="1" stop-color="white" stop-opacity="0.79"/>
</radialGradient>
<clipPath id="clip0_1_112">
<rect width="12" height="12" fill="white" transform="translate(199 30)"/>
</clipPath>
</defs>
</svg>
