<svg width="62" height="62" viewBox="0 0 62 62" fill="none" xmlns="http://www.w3.org/2000/svg">
<circle opacity="0.15" cx="31" cy="31" r="31" fill="url(#paint0_linear_1_158)"/>
<path d="M36 41H19C18.4696 41 17.9609 40.7893 17.5858 40.4142C17.2107 40.0391 17 39.5304 17 39V23C17 22.4696 17.2107 21.9609 17.5858 21.5858C17.9609 21.2107 18.4696 21 19 21H36C36.5304 21 37.0391 21.2107 37.4142 21.5858C37.7893 21.9609 38 22.4696 38 23V27.06L43.42 23.19C43.5693 23.0837 43.7448 23.0205 43.9276 23.0072C44.1103 22.994 44.2932 23.0311 44.4562 23.1147C44.6193 23.1983 44.7562 23.3251 44.8521 23.4812C44.948 23.6373 44.9992 23.8168 45 24V38C44.9992 38.1832 44.948 38.3627 44.8521 38.5188C44.7562 38.6749 44.6193 38.8017 44.4562 38.8853C44.2932 38.9689 44.1103 39.006 43.9276 38.9928C43.7448 38.9795 43.5693 38.9163 43.42 38.81L38 34.94V39C38 39.5304 37.7893 40.0391 37.4142 40.4142C37.0391 40.7893 36.5304 41 36 41Z" fill="url(#paint1_linear_1_158)"/>
<defs>
<linearGradient id="paint0_linear_1_158" x1="-52" y1="31" x2="60.4069" y2="27.6627" gradientUnits="userSpaceOnUse">
<stop stop-color="#79E28A"/>
<stop offset="1" stop-color="#79E2B1" stop-opacity="0.65"/>
</linearGradient>
<linearGradient id="paint1_linear_1_158" x1="17" y1="30.3333" x2="44.3284" y2="30.5041" gradientUnits="userSpaceOnUse">
<stop stop-color="#79E28A"/>
<stop offset="1" stop-color="#79E2B1" stop-opacity="0.65"/>
</linearGradient>
</defs>
</svg>
