<svg width="97" height="98" viewBox="0 0 97 98" fill="none" xmlns="http://www.w3.org/2000/svg">
<circle cx="48.4605" cy="48.7434" r="48.4605" fill="url(#paint0_linear_1_196)"/>
<path d="M27.5017 61.9492C29.8822 66.0799 34.0745 67.9842 38.8529 68.3842C41.8096 72.4238 45.681 75 49.9278 75C54.1728 75 58.043 72.4256 60.9993 68.3889C65.7811 67.9885 69.9732 66.0801 72.3539 61.9492C74.7153 57.8624 74.2958 53.3161 72.2923 48.9996C74.2946 44.6893 74.7196 40.145 72.3539 36.0508C69.9774 31.9271 65.7863 30.0206 61.0051 29.6191C58.048 25.5776 54.1756 23 49.9278 23C45.6799 23 41.8077 25.5776 38.8507 29.6189C34.0691 30.0204 29.8782 31.9271 27.5017 36.0508C25.1402 40.1376 25.5598 44.6837 27.5632 49.0002C25.561 53.3105 25.1361 57.855 27.5017 61.9492ZM40.421 32.5702C41.8072 32.5474 43.2446 32.6662 44.6944 32.8884C43.6031 33.3857 42.5416 33.914 41.549 34.4872C40.5131 35.0853 39.4811 35.7701 38.463 36.5025C39.0266 35.0707 39.6842 33.7547 40.421 32.5702ZM61.3925 36.5017C60.3759 35.7707 59.3442 35.0861 58.3067 34.4871C57.316 33.9154 56.2574 33.3884 55.1689 32.8923C56.6154 32.6706 58.051 32.5505 59.4361 32.5725C60.1721 33.7563 60.8291 35.0713 61.3925 36.5017ZM59.4414 65.4193C58.0588 65.4412 56.6261 65.3209 55.1833 65.1011C56.2671 64.6064 57.3214 64.0814 58.3067 63.5128C59.3425 62.9147 60.3746 62.2299 61.3927 61.4975C60.8306 62.925 60.1754 64.2377 59.4414 65.4193ZM66.5164 45.5215C67.4135 46.6455 68.2202 47.8094 68.8848 49.0002C68.2202 50.1907 67.4133 51.3545 66.5164 52.4781C66.6162 51.3375 66.6856 50.1824 66.6856 49C66.6856 47.8176 66.6162 46.6624 66.5164 45.5215ZM56.7832 37.1264C58.8142 38.2988 60.9347 39.8558 62.8987 41.6549C63.3707 43.9637 63.6387 46.4283 63.6387 49C63.6387 51.5712 63.3709 54.0353 62.8991 56.3437C60.9335 58.1446 58.8117 59.7027 56.7832 60.8737C54.7852 62.0263 52.4214 63.0691 49.9273 63.8659C47.4316 63.0686 45.0678 62.0254 43.0723 60.8737C41.0414 59.7013 38.9208 58.1443 36.9568 56.3452C36.4849 54.0364 36.2168 51.5718 36.2168 49.0001C36.2168 46.4289 36.4847 43.9648 36.9564 41.6564C38.9221 39.8555 41.0438 38.2973 43.0723 37.1264C45.0787 35.9682 47.4428 34.9244 49.933 34.1272C52.4074 34.9216 54.7653 35.9617 56.7832 37.1264ZM33.3392 52.4785C32.4421 51.3545 31.6351 50.1904 30.9707 48.9996C31.6356 47.8091 32.4423 46.6455 33.3392 45.5218C33.2393 46.6625 33.17 47.8176 33.17 49C33.17 50.1824 33.2393 51.3376 33.3392 52.4785ZM41.5489 63.5129C42.5348 64.0821 43.5885 64.6067 44.6711 65.1014C43.2286 65.3212 41.7959 65.441 40.4138 65.419C39.68 64.2375 39.025 62.9252 38.4632 61.4983C39.4796 62.2293 40.5114 62.9139 41.5489 63.5129ZM49.9278 71.9531C47.2772 71.9531 44.8085 70.5709 42.7089 68.3916C45.0965 68.2256 47.5408 67.7696 49.9215 67.0714C52.306 67.7723 54.7531 68.2292 57.1426 68.3955C55.0437 70.5723 52.5767 71.9531 49.9278 71.9531ZM69.7176 60.4258C68.2714 62.9324 65.8977 64.3644 63.0743 65.0088C64.1485 62.9064 65.0089 60.5417 65.6235 57.9878C67.4178 56.27 69.0321 54.3768 70.3651 52.3877C71.2163 55.1533 71.1618 57.9227 69.7176 60.4258ZM69.7176 37.5742C71.1624 40.078 71.2171 42.8469 70.3661 45.6115C69.0342 43.6224 67.4199 41.7275 65.6224 40.0074C65.0073 37.4528 64.1462 35.0869 63.071 32.9841C65.8956 33.6304 68.2699 35.0651 69.7176 37.5742ZM49.9278 26.0469C52.5793 26.0469 55.0488 27.43 57.1489 29.6106C54.759 29.7757 52.3116 30.2309 49.9274 30.9302C47.5429 30.2307 45.0959 29.7757 42.7067 29.6106C44.8068 27.43 47.2763 26.0469 49.9278 26.0469ZM30.1379 37.5742C31.5832 35.0695 33.9571 33.6336 36.7844 32.9846C35.7085 35.0887 34.8472 37.4558 34.232 40.0123C32.4378 41.7301 30.8235 43.6233 29.4905 45.6124C28.6393 42.8467 28.6938 40.0773 30.1379 37.5742ZM34.2331 57.9925C34.8476 60.5442 35.7076 62.9075 36.781 65.0082C33.9575 64.3637 31.584 62.9318 30.1379 60.4258C28.6932 57.922 28.6386 55.1531 29.4896 52.3885C30.8215 54.3776 32.4356 56.2722 34.2331 57.9925Z" fill="white"/>
<path d="M49.9277 44.4297C54.1346 44.4297 57.5449 43.0656 57.5449 41.3828C57.5449 39.7001 54.1346 38.3359 49.9277 38.3359C45.7209 38.3359 42.3105 39.7001 42.3105 41.3828C42.3105 43.0656 45.7209 44.4297 49.9277 44.4297Z" fill="white"/>
<path d="M49.9277 47.4766C45.723 47.4766 42.3105 46.1055 42.3105 44.4297V49C42.3105 50.6758 45.723 52.0469 49.9277 52.0469C54.1324 52.0469 57.5449 50.6758 57.5449 49V44.4297C57.5449 46.1055 54.1324 47.4766 49.9277 47.4766Z" fill="white"/>
<path d="M49.9277 55.0938C45.723 55.0938 42.3105 53.7227 42.3105 52.0469V56.6172C42.3105 58.293 45.723 59.6641 49.9277 59.6641C54.1324 59.6641 57.5449 58.293 57.5449 56.6172V52.0469C57.5449 53.7227 54.1324 55.0938 49.9277 55.0938Z" fill="white"/>
<defs>
<linearGradient id="paint0_linear_1_196" x1="-5.19627e-07" y1="45.5127" x2="94.5981" y2="45.9348" gradientUnits="userSpaceOnUse">
<stop stop-color="#FF7070"/>
<stop offset="1" stop-color="#FF7070" stop-opacity="0.65"/>
</linearGradient>
</defs>
</svg>
