<svg width="97" height="97" viewBox="0 0 97 97" fill="none" xmlns="http://www.w3.org/2000/svg">
<circle cx="48.4605" cy="48.4605" r="48.4605" fill="url(#paint0_linear_1_229)"/>
<g clip-path="url(#clip0_1_229)">
<path d="M68.4763 35.4785L70.8043 33.1509C71.191 32.7638 71.3185 32.1874 71.1306 31.6736C70.9427 31.1594 70.4736 30.8013 69.928 30.7551L65.6093 30.3907L65.2449 26.072C65.1991 25.5267 64.8406 25.0576 64.3268 24.8698C63.813 24.6815 63.2366 24.809 62.8495 25.196L60.5215 27.5237C56.7568 25.2155 52.4524 24 48 24C41.5895 24 35.5624 26.4965 31.0294 31.0294C26.4965 35.5624 24 41.5895 24 48C24 54.4105 26.4965 60.4376 31.0294 64.9706C35.5624 69.5035 41.5895 72 48 72C54.4105 72 60.4376 69.5035 64.9706 64.9706C69.5035 60.4376 72 54.4105 72 48C72 43.5476 70.7845 39.2435 68.4763 35.4785ZM62.9062 31.8105C62.9641 32.4939 63.5061 33.0359 64.1895 33.0938L66.6742 33.3032L63.3109 36.6665L59.6429 36.3571L59.3335 32.6891L62.6968 29.3258L62.9062 31.8105ZM52.7812 48C52.7812 50.6364 50.6364 52.7812 48 52.7812C45.3636 52.7812 43.2188 50.6364 43.2188 48C43.2188 45.3636 45.3636 43.2188 48 43.2188C48.8075 43.2188 49.5681 43.4205 50.2357 43.7754L47.0057 47.0057C46.4564 47.5547 46.4564 48.4449 47.0057 48.9943C47.28 49.2689 47.64 49.4062 48 49.4062C48.36 49.4062 48.72 49.2689 48.9943 48.9943L52.2246 45.7643C52.5795 46.4319 52.7812 47.1925 52.7812 48ZM52.2799 41.7312C51.0604 40.8962 49.5864 40.4062 48 40.4062C43.8127 40.4062 40.4062 43.8127 40.4062 48C40.4062 52.1873 43.8127 55.5938 48 55.5938C52.1873 55.5938 55.5938 52.1873 55.5938 48C55.5938 46.4136 55.1038 44.9396 54.2688 43.7201L58.2839 39.705C60.1183 41.9747 61.2188 44.8612 61.2188 48C61.2188 55.2887 55.2887 61.2188 48 61.2188C40.7113 61.2188 34.7812 55.2887 34.7812 48C34.7812 40.7113 40.7113 34.7812 48 34.7812C51.1388 34.7812 54.0253 35.8817 56.295 37.7161L52.2799 41.7312ZM62.9817 62.9817C58.9801 66.9836 53.6594 69.1875 48 69.1875C42.3406 69.1875 37.0199 66.9836 33.0183 62.9817C29.0164 58.9801 26.8125 53.6594 26.8125 48C26.8125 42.3406 29.0164 37.0199 33.0183 33.0183C37.0199 29.0164 42.3406 26.8125 48 26.8125C51.7024 26.8125 55.2887 27.7635 58.4692 29.5759L56.8832 31.162C56.6268 31.4183 56.4807 31.7618 56.4716 32.1204C56.4705 32.1716 56.4719 32.2229 56.476 32.2745L56.6653 34.5183C54.1652 32.9055 51.1901 31.9688 48 31.9688C39.1604 31.9688 31.9688 39.1604 31.9688 48C31.9688 56.8396 39.1604 64.0312 48 64.0312C56.8396 64.0312 64.0312 56.8396 64.0312 48C64.0312 44.8099 63.0945 41.8348 61.4817 39.3347L63.7255 39.524C63.765 39.527 63.8046 39.5288 63.8438 39.5288C63.8503 39.5288 63.8573 39.5281 63.8639 39.5277C63.8826 39.5277 63.9009 39.5262 63.9196 39.5251C63.95 39.5233 63.9807 39.5215 64.0107 39.5178C64.0294 39.5153 64.0481 39.5123 64.0668 39.5094C64.0964 39.5046 64.1257 39.4991 64.155 39.4926C64.1737 39.4882 64.192 39.4834 64.2103 39.4786C64.2389 39.4709 64.2671 39.4622 64.2953 39.4526C64.3136 39.4464 64.3315 39.4402 64.3495 39.4332C64.377 39.4226 64.4041 39.4109 64.4312 39.3981C64.4484 39.3904 64.4656 39.3827 64.4828 39.3739C64.5099 39.36 64.5363 39.3446 64.5623 39.3292C64.578 39.3197 64.5938 39.3109 64.6091 39.3014C64.637 39.2831 64.6637 39.2633 64.6904 39.2432C64.7029 39.2336 64.7157 39.2252 64.7278 39.2153C64.7659 39.1846 64.8029 39.152 64.838 39.1168L66.4241 37.5308C68.2365 40.7113 69.1875 44.2976 69.1875 48C69.1875 53.6594 66.9836 58.9801 62.9817 62.9817Z" fill="white"/>
</g>
<defs>
<linearGradient id="paint0_linear_1_229" x1="-5.19627e-07" y1="45.2298" x2="94.5981" y2="45.652" gradientUnits="userSpaceOnUse">
<stop stop-color="#AA80FF"/>
<stop offset="1" stop-color="#A071FF" stop-opacity="0.65"/>
</linearGradient>
<clipPath id="clip0_1_229">
<rect width="48" height="48" fill="white" transform="translate(24 24)"/>
</clipPath>
</defs>
</svg>
