<svg width="62" height="62" viewBox="0 0 62 62" fill="none" xmlns="http://www.w3.org/2000/svg">
<circle opacity="0.15" cx="31" cy="31" r="31" fill="url(#paint0_linear_1_163)"/>
<path d="M33.4898 36.6432C32.9381 36.9816 32.2315 37.168 31.5002 37.168C30.7688 37.168 30.0622 36.9817 29.5105 36.6432L20.5026 31.1186C20.5026 31.1186 19.6895 30.6202 19.6895 31.7492C19.6895 33.0312 19.6895 36.8774 19.6895 36.8774C19.6895 36.9287 19.6895 37.1861 19.6895 37.2659C19.6895 40.172 24.9772 43.305 31.4999 43.305C38.0226 43.305 43.3103 40.1721 43.3103 37.2659C43.3103 37.1861 43.3103 36.9287 43.3103 36.8774C43.3103 36.8774 43.3103 32.798 43.3103 31.4382C43.3103 30.5319 42.7323 30.9748 42.7323 30.9748L33.4898 36.6432Z" fill="url(#paint1_linear_1_163)"/>
<path d="M46.4809 26.7241C47.173 26.2996 47.173 25.605 46.4809 25.1804L32.7584 18.3184C32.0663 17.8939 30.9336 17.8939 30.2415 18.3184L16.5191 25.1804C15.827 25.6049 15.827 26.2996 16.5191 26.7241L30.2415 35.1402C30.9336 35.5647 32.0663 35.5647 32.7584 35.1402" fill="url(#paint2_linear_1_163)"/>
<path d="M45.9136 39.1988C45.9136 36.8751 45.9136 29.9039 45.9136 29.9039C45.9136 29.9039 45.9201 29.4637 45.6588 29.609C45.4493 29.7257 44.9356 30.012 44.7546 30.1694C44.5457 30.351 44.5928 30.7586 44.5928 30.7586C44.5928 30.7586 44.5928 37.0887 44.5928 39.1988C44.5928 39.3186 44.4898 39.3758 44.4407 39.4047C43.9664 39.6835 43.6474 40.1983 43.6474 40.7884C43.6474 41.6753 44.3663 42.3943 45.2532 42.3943C46.1401 42.3943 46.859 41.6753 46.859 40.7884C46.859 40.196 46.5377 39.6797 46.0603 39.4015C46.0128 39.3738 45.9136 39.3185 45.9136 39.1988Z" fill="url(#paint3_linear_1_163)"/>
<defs>
<linearGradient id="paint0_linear_1_163" x1="-3.32403e-07" y1="28.9333" x2="60.514" y2="29.2034" gradientUnits="userSpaceOnUse">
<stop stop-color="#F99462"/>
<stop offset="1" stop-color="#F99462" stop-opacity="0.65"/>
</linearGradient>
<linearGradient id="paint1_linear_1_163" x1="19.6895" y1="36.6712" x2="42.743" y2="36.8665" gradientUnits="userSpaceOnUse">
<stop stop-color="#F99462"/>
<stop offset="1" stop-color="#F99462" stop-opacity="0.65"/>
</linearGradient>
<linearGradient id="paint2_linear_1_163" x1="16" y1="26.1473" x2="46.2557" y2="26.3871" gradientUnits="userSpaceOnUse">
<stop stop-color="#F99462"/>
<stop offset="1" stop-color="#F99462" stop-opacity="0.65"/>
</linearGradient>
<linearGradient id="paint3_linear_1_163" x1="43.6474" y1="35.5598" x2="46.7821" y2="35.5633" gradientUnits="userSpaceOnUse">
<stop stop-color="#F99462"/>
<stop offset="1" stop-color="#F99462" stop-opacity="0.65"/>
</linearGradient>
</defs>
</svg>
