<svg width="97" height="97" viewBox="0 0 97 97" fill="none" xmlns="http://www.w3.org/2000/svg">
<circle cx="48.4605" cy="48.4605" r="48.4605" fill="white"/>
<g clip-path="url(#clip0_1_208)">
<path d="M71.5938 25H65.9688C65.1921 25 64.5625 25.6296 64.5625 26.4062V27.8125H52.9769C52.3964 26.1758 50.8333 25 49 25C47.1667 25 45.6036 26.1758 45.0231 27.8125H33.4375V26.4062C33.4375 25.6296 32.8079 25 32.0312 25H26.4062C25.6296 25 25 25.6296 25 26.4062V32.0312C25 32.8079 25.6296 33.4375 26.4062 33.4375H32.0312C32.8079 33.4375 33.4375 32.8079 33.4375 32.0312V30.6062H39.2853C34.212 33.8194 31.128 39.2477 30.757 45.0102C29.1004 45.5798 27.9062 47.1526 27.9062 49C27.9062 51.3262 29.7988 53.2188 32.125 53.2188C34.4512 53.2188 36.3438 51.3262 36.3438 49C36.3438 47.1831 35.1892 45.6308 33.5753 45.0381C34.0746 38.415 38.8439 32.7106 45.2215 31.0921C45.9128 32.4807 47.3463 33.4375 49 33.4375C50.6537 33.4375 52.0872 32.4807 52.7785 31.0922C59.1562 32.7107 63.9254 38.4151 64.4247 45.0382C62.8108 45.6308 61.6562 47.1831 61.6562 49C61.6562 51.3262 63.5488 53.2188 65.875 53.2188C68.2012 53.2188 70.0938 51.3262 70.0938 49C70.0938 47.1526 68.8996 45.5798 67.243 45.0102C66.8713 39.2361 63.7781 33.8319 58.7147 30.625H64.5625V32.0312C64.5625 32.8079 65.1921 33.4375 65.9688 33.4375H71.5938C72.3704 33.4375 73 32.8079 73 32.0312V26.4062C73 25.6296 72.3704 25 71.5938 25ZM30.625 30.625H27.8125V27.8125H30.625V30.625ZM32.125 50.4062C31.3496 50.4062 30.7188 49.7754 30.7188 49C30.7188 48.2246 31.3496 47.5938 32.125 47.5938C32.9004 47.5938 33.5312 48.2246 33.5312 49C33.5312 49.7754 32.9004 50.4062 32.125 50.4062ZM49 30.625C48.2246 30.625 47.5938 29.9942 47.5938 29.2188C47.5938 28.4433 48.2246 27.8125 49 27.8125C49.7754 27.8125 50.4062 28.4433 50.4062 29.2188C50.4062 29.9942 49.7754 30.625 49 30.625ZM65.875 47.5938C66.6504 47.5938 67.2812 48.2246 67.2812 49C67.2812 49.7754 66.6504 50.4062 65.875 50.4062C65.0996 50.4062 64.4688 49.7754 64.4688 49C64.4688 48.2246 65.0996 47.5938 65.875 47.5938ZM70.1875 30.625H67.375V27.8125H70.1875V30.625Z" fill="url(#paint0_linear_1_208)"/>
<path d="M61.4201 53.8449L50.1701 36.97C50.1697 36.9694 50.1692 36.9689 50.1689 36.9682C50.1648 36.9622 50.1604 36.9565 50.1563 36.9506C50.137 36.9226 50.1167 36.8956 50.0955 36.8692C49.5029 36.1329 48.3745 36.1826 47.8439 36.9506C47.8397 36.9565 47.8353 36.9622 47.8313 36.9682C47.8309 36.9689 47.8305 36.9694 47.8301 36.97L36.5801 53.845C36.2082 54.4027 36.2818 55.1454 36.7558 55.6194C39.5614 58.4251 41.3472 62.0926 41.8337 66.0164C41.6153 66.1929 41.4045 66.3819 41.2046 66.5865C39.8837 67.9376 39.1563 69.716 39.1563 71.5938C39.1563 72.3704 39.786 73 40.5626 73H57.4376C58.2142 73 58.8438 72.3704 58.8438 71.5938C58.8438 69.716 58.1164 67.9376 56.7957 66.5864C56.5957 66.3818 56.385 66.1928 56.1665 66.0163C56.6529 62.0923 58.4387 58.4248 61.2443 55.6194C61.7184 55.1454 61.792 54.4026 61.4201 53.8449ZM49.0001 53.2188C49.7755 53.2188 50.4063 53.8496 50.4063 54.625C50.4063 55.4004 49.7755 56.0313 49.0001 56.0313C48.2247 56.0313 47.5938 55.4004 47.5938 54.625C47.5938 53.8496 48.2247 53.2188 49.0001 53.2188ZM42.2087 70.1875C42.7937 68.5157 44.3798 67.2813 46.1876 67.2813H51.8126C53.6204 67.2813 55.2064 68.5157 55.7915 70.1875H42.2087ZM53.5231 64.6828C52.9699 64.5416 52.3966 64.4688 51.8126 64.4688H46.1876C45.6036 64.4688 45.0302 64.5416 44.4771 64.6829C43.819 60.8927 42.1098 57.3497 39.5412 54.4736L47.5938 42.3946V50.6482C45.9571 51.2287 44.7813 52.7918 44.7813 54.6251C44.7813 56.9513 46.6739 58.8439 49.0001 58.8439C51.3263 58.8439 53.2188 56.9513 53.2188 54.6251C53.2188 52.7918 52.0431 51.2287 50.4063 50.6482V42.3946L58.4591 54.4736C55.8903 57.3494 54.1811 60.8925 53.5231 64.6828Z" fill="url(#paint1_linear_1_208)"/>
</g>
<defs>
<linearGradient id="paint0_linear_1_208" x1="25" y1="38.1688" x2="71.8478" y2="38.5243" gradientUnits="userSpaceOnUse">
<stop stop-color="#F99462"/>
<stop offset="1" stop-color="#F99462" stop-opacity="0.65"/>
</linearGradient>
<linearGradient id="paint1_linear_1_208" x1="36.3438" y1="53.4505" x2="61.0499" y2="53.5267" gradientUnits="userSpaceOnUse">
<stop stop-color="#F99462"/>
<stop offset="1" stop-color="#F99462" stop-opacity="0.65"/>
</linearGradient>
<clipPath id="clip0_1_208">
<rect width="48" height="48" fill="white" transform="translate(25 25)"/>
</clipPath>
</defs>
</svg>
