<svg width="20" height="20" viewBox="0 0 20 20" fill="none" xmlns="http://www.w3.org/2000/svg">
<path fill-rule="evenodd" clip-rule="evenodd" d="M10 1.66667C14.6025 1.66667 18.3334 5.39751 18.3334 10C18.3334 14.6025 14.6025 18.3333 10 18.3333C5.39752 18.3333 1.66669 14.6025 1.66669 10C1.66669 5.39751 5.39752 1.66667 10 1.66667ZM10 3.33334C8.23191 3.33334 6.53622 4.03572 5.28598 5.28596C4.03573 6.5362 3.33335 8.2319 3.33335 10C3.33335 11.7681 4.03573 13.4638 5.28598 14.7141C6.53622 15.9643 8.23191 16.6667 10 16.6667C11.7681 16.6667 13.4638 15.9643 14.7141 14.7141C15.9643 13.4638 16.6667 11.7681 16.6667 10C16.6667 8.2319 15.9643 6.5362 14.7141 5.28596C13.4638 4.03572 11.7681 3.33334 10 3.33334ZM10 5.00001C10.2041 5.00003 10.4011 5.07497 10.5537 5.2106C10.7062 5.34623 10.8036 5.53313 10.8275 5.73584L10.8334 5.83334V9.65501L12.2559 11.0775C12.4053 11.2275 12.4921 11.4287 12.4985 11.6403C12.505 11.8519 12.4307 12.0581 12.2906 12.2169C12.1506 12.3757 11.9554 12.4753 11.7446 12.4953C11.5339 12.5154 11.3233 12.4545 11.1559 12.325L11.0775 12.2558L9.41085 10.5892C9.28134 10.4595 9.19816 10.2908 9.17419 10.1092L9.16669 10V5.83334C9.16669 5.61232 9.25449 5.40036 9.41077 5.24408C9.56705 5.0878 9.77901 5.00001 10 5.00001Z" fill="#3D3D3D" fill-opacity="0.8"/>
</svg>
