<svg width="62" height="62" viewBox="0 0 62 62" fill="none" xmlns="http://www.w3.org/2000/svg">
<circle opacity="0.15" cx="31" cy="31" r="31" fill="url(#paint0_linear_1_174)"/>
<path d="M23.5 23.5C18.5875 23.5 16 27.2875 16 31C16 34.7125 18.5875 38.5 23.5 38.5C26.4625 38.5 28.825 36.4 31 33.925C33.175 36.4 35.4625 38.5 38.5 38.5C43.4125 38.5 46 34.7125 46 31C46 27.2875 43.4125 23.5 38.5 23.5C35.4625 23.5 33.175 25.6 31 28.075C28.825 25.6 26.4625 23.5 23.5 23.5ZM23.5 27.25C25.075 27.25 26.8 29.0125 28.525 31C26.8 32.9875 25.075 34.75 23.5 34.75C20.725 34.75 19.75 32.725 19.75 31C19.75 29.275 20.725 27.25 23.5 27.25ZM38.5 27.25C41.275 27.25 42.25 29.275 42.25 31C42.25 32.725 41.275 34.75 38.5 34.75C36.8875 34.75 35.1625 32.9875 33.475 31C35.2 29.0125 36.8875 27.25 38.5 27.25Z" fill="url(#paint1_linear_1_174)"/>
<defs>
<linearGradient id="paint0_linear_1_174" x1="-3.32403e-07" y1="28.9333" x2="60.514" y2="29.2034" gradientUnits="userSpaceOnUse">
<stop stop-color="#47C2FF"/>
<stop offset="1" stop-color="#63CBFE" stop-opacity="0.65"/>
</linearGradient>
<linearGradient id="paint1_linear_1_174" x1="16" y1="30.5" x2="45.2792" y2="30.7613" gradientUnits="userSpaceOnUse">
<stop stop-color="#47C2FF"/>
<stop offset="1" stop-color="#63CBFE" stop-opacity="0.65"/>
</linearGradient>
</defs>
</svg>
