<svg width="174" height="34" viewBox="0 0 174 34" fill="none" xmlns="http://www.w3.org/2000/svg">
<path d="M41.5115 26.2045C40.1835 26.2045 38.8955 26.0285 37.6475 25.6765C36.4155 25.3085 35.4235 24.8365 34.6715 24.2605L35.9915 21.3325C36.7115 21.8605 37.5675 22.2845 38.5595 22.6045C39.5515 22.9245 40.5435 23.0845 41.5355 23.0845C42.6395 23.0845 43.4555 22.9245 43.9835 22.6045C44.5115 22.2685 44.7755 21.8285 44.7755 21.2845C44.7755 20.8845 44.6155 20.5565 44.2955 20.3005C43.9915 20.0285 43.5915 19.8125 43.0955 19.6525C42.6155 19.4925 41.9595 19.3165 41.1275 19.1245C39.8475 18.8205 38.7995 18.5165 37.9835 18.2125C37.1675 17.9085 36.4635 17.4205 35.8715 16.7485C35.2955 16.0765 35.0075 15.1805 35.0075 14.0605C35.0075 13.0845 35.2715 12.2045 35.7995 11.4205C36.3275 10.6205 37.1195 9.9885 38.1755 9.5245C39.2475 9.0605 40.5515 8.8285 42.0875 8.8285C43.1595 8.8285 44.2075 8.9565 45.2315 9.2125C46.2555 9.4685 47.1515 9.8365 47.9195 10.3165L46.7195 13.2685C45.1675 12.3885 43.6155 11.9485 42.0635 11.9485C40.9755 11.9485 40.1675 12.1245 39.6395 12.4765C39.1275 12.8285 38.8715 13.2925 38.8715 13.8685C38.8715 14.4445 39.1675 14.8765 39.7595 15.1645C40.3675 15.4365 41.2875 15.7085 42.5195 15.9805C43.7995 16.2845 44.8475 16.5885 45.6635 16.8925C46.4795 17.1965 47.1755 17.6765 47.7515 18.3325C48.3435 18.9885 48.6395 19.8765 48.6395 20.9965C48.6395 21.9565 48.3675 22.8365 47.8235 23.6365C47.2955 24.4205 46.4955 25.0445 45.4235 25.5085C44.3515 25.9725 43.0475 26.2045 41.5115 26.2045ZM57.4162 19.3165L55.1602 21.6685V25.9165H51.2962V9.1165H55.1602V16.9645L62.6002 9.1165H66.9202L59.9602 16.6045L67.3282 25.9165H62.7922L57.4162 19.3165ZM69.0618 9.1165H72.9498V25.9165H69.0618V9.1165ZM76.9368 9.1165H80.8248V22.7485H89.2488V25.9165H76.9368V9.1165ZM91.4212 9.1165H95.3092V22.7485H103.733V25.9165H91.4212V9.1165ZM113.664 26.2045C111.952 26.2045 110.4 25.8365 109.008 25.1005C107.632 24.3485 106.544 23.3165 105.744 22.0045C104.96 20.6765 104.568 19.1805 104.568 17.5165C104.568 15.8525 104.96 14.3645 105.744 13.0525C106.544 11.7245 107.632 10.6925 109.008 9.9565C110.4 9.2045 111.96 8.8285 113.688 8.8285C115.144 8.8285 116.456 9.0845 117.624 9.5965C118.808 10.1085 119.8 10.8445 120.6 11.8045L118.104 14.1085C116.968 12.7965 115.56 12.1405 113.88 12.1405C112.84 12.1405 111.912 12.3725 111.096 12.8365C110.28 13.2845 109.64 13.9165 109.176 14.7325C108.728 15.5485 108.504 16.4765 108.504 17.5165C108.504 18.5565 108.728 19.4845 109.176 20.3005C109.64 21.1165 110.28 21.7565 111.096 22.2205C111.912 22.6685 112.84 22.8925 113.88 22.8925C115.56 22.8925 116.968 22.2285 118.104 20.9005L120.6 23.2045C119.8 24.1805 118.808 24.9245 117.624 25.4365C116.44 25.9485 115.12 26.2045 113.664 26.2045ZM133.962 22.3165H126.162L124.674 25.9165H120.69L128.178 9.1165H132.018L139.53 25.9165H135.45L133.962 22.3165ZM132.738 19.3645L130.074 12.9325L127.41 19.3645H132.738ZM151.977 25.9165L148.737 21.2365H148.545H145.161V25.9165H141.273V9.1165H148.545C150.033 9.1165 151.321 9.3645 152.409 9.8605C153.513 10.3565 154.361 11.0605 154.953 11.9725C155.545 12.8845 155.841 13.9645 155.841 15.2125C155.841 16.4605 155.537 17.5405 154.929 18.4525C154.337 19.3485 153.489 20.0365 152.385 20.5165L156.153 25.9165H151.977ZM151.905 15.2125C151.905 14.2685 151.601 13.5485 150.993 13.0525C150.385 12.5405 149.497 12.2845 148.329 12.2845H145.161V18.1405H148.329C149.497 18.1405 150.385 17.8845 150.993 17.3725C151.601 16.8605 151.905 16.1405 151.905 15.2125ZM171.929 22.7965V25.9165H158.921V9.1165H171.617V12.2365H162.785V15.8845H170.585V18.9085H162.785V22.7965H171.929Z" fill="#3D3D3D"/>
<path d="M15.8672 29.9452L16.0707 29.879L16.0743 29.665L16.4879 5.28772C16.5393 2.25774 13.8109 -0.00786495 11.045 0.901608L4.34278 3.10544C2.4904 3.71453 1.23491 5.53126 1.20867 7.58177L0.958815 27.1119C0.910367 30.8989 4.31443 33.7068 7.75538 32.5865L15.8672 29.9452ZM5.25333 6.21979L11.9556 4.01597L11.8619 3.73098L11.9556 4.01597C12.6616 3.78382 13.4296 4.3546 13.4148 5.229L13.0377 27.4557L6.85297 29.4695C5.46419 29.9217 4.0111 28.7965 4.03208 27.1562L4.28194 7.62606C4.2904 6.96443 4.69419 6.40364 5.25333 6.21979L5.15962 5.9348L5.25333 6.21979Z" fill="#FE7244" stroke="#FE7244" stroke-width="0.6"/>
<path d="M21.554 24.7403L15.5469 26.6464L15.7718 10.3563L21.0746 8.35618C22.103 7.96832 23.2359 8.78626 23.2263 10.0408L23.1314 22.475C23.1234 23.5374 22.4713 24.4492 21.554 24.7403ZM12.9211 7.97072L12.7299 8.04287L12.727 8.24728L12.4181 30.6287L12.4124 31.0446L12.8088 30.9188L22.4354 27.864C24.6672 27.1558 26.1861 24.9706 26.2049 22.5014L26.2998 10.0672C26.3261 6.61608 23.1446 4.11476 20.0444 5.28405L12.9211 7.97072Z" fill="#FE7244" stroke="#FE7244" stroke-width="0.6"/>
<path d="M16.2697 9.15643L16.4634 9.08305V8.87588V5.49138C16.4634 2.31059 13.5755 -0.0177604 10.685 0.962301L4.07738 3.20276C2.62136 3.69646 1.55399 5.01175 1.28787 6.60265C0.639645 10.4778 4.13063 13.7542 7.67513 12.4117L16.2697 9.15643ZM5.01372 6.3085L11.6214 4.06805C12.4701 3.78028 13.3899 4.45514 13.3899 5.49138V6.78486L6.64104 9.34106C5.39816 9.81178 4.06356 8.6706 4.31411 7.17279C4.38394 6.75531 4.66036 6.42832 5.01372 6.3085Z" fill="#FE7244" stroke="#FE7244" stroke-width="0.6"/>
</svg>
