<svg width="211" height="112" viewBox="0 0 211 112" fill="none" xmlns="http://www.w3.org/2000/svg">
<g filter="url(#filter0_d_1_136)">
<circle cx="56" cy="48" r="32" fill="url(#paint0_linear_1_136)"/>
</g>
<g filter="url(#filter1_d_1_136)">
<circle cx="56" cy="48" r="32" fill="url(#paint1_radial_1_136)"/>
</g>
<path d="M70.5146 45.309C72.2127 46.2148 72.2934 48.619 70.66 49.6367L50.988 61.8926C49.3545 62.9102 47.232 61.778 47.1674 59.8546L46.3895 36.6902C46.3249 34.7668 48.3667 33.4947 50.0647 34.4005L70.5146 45.309Z" fill="#FE7244"/>
<path d="M107.36 56.144C106.896 56.144 106.52 56.008 106.232 55.736C105.96 55.448 105.824 55.064 105.824 54.584V40.544C105.824 40.08 105.952 39.72 106.208 39.464C106.48 39.208 106.848 39.08 107.312 39.08H113.216C115.024 39.08 116.432 39.536 117.44 40.448C118.448 41.344 118.952 42.608 118.952 44.24C118.952 45.872 118.448 47.144 117.44 48.056C116.432 48.968 115.024 49.424 113.216 49.424H108.92V54.584C108.92 55.064 108.776 55.448 108.488 55.736C108.216 56.008 107.84 56.144 107.36 56.144ZM112.832 47.048C114.96 47.048 116.024 46.12 116.024 44.264C116.024 42.408 114.96 41.48 112.832 41.48H108.92V47.048H112.832ZM122.892 56.144C122.46 56.144 122.1 56.024 121.812 55.784C121.54 55.528 121.404 55.168 121.404 54.704V40.376C121.404 39.912 121.54 39.56 121.812 39.32C122.1 39.08 122.46 38.96 122.892 38.96C123.324 38.96 123.684 39.08 123.972 39.32C124.26 39.56 124.404 39.912 124.404 40.376V54.704C124.404 55.168 124.26 55.528 123.972 55.784C123.684 56.024 123.324 56.144 122.892 56.144ZM132.586 43.976C134.218 43.976 135.426 44.384 136.21 45.2C137.01 46 137.41 47.224 137.41 48.872V54.728C137.41 55.16 137.282 55.504 137.026 55.76C136.77 56 136.418 56.12 135.97 56.12C135.554 56.12 135.21 55.992 134.938 55.736C134.682 55.48 134.554 55.144 134.554 54.728V54.2C134.282 54.824 133.85 55.312 133.258 55.664C132.682 56.016 132.01 56.192 131.242 56.192C130.458 56.192 129.746 56.032 129.105 55.712C128.466 55.392 127.962 54.952 127.594 54.392C127.226 53.832 127.042 53.208 127.042 52.52C127.042 51.656 127.258 50.976 127.69 50.48C128.138 49.984 128.858 49.624 129.85 49.4C130.842 49.176 132.21 49.064 133.954 49.064H134.554V48.512C134.554 47.728 134.386 47.16 134.05 46.808C133.714 46.44 133.17 46.256 132.418 46.256C131.954 46.256 131.482 46.328 131.002 46.472C130.522 46.6 129.954 46.792 129.298 47.048C128.882 47.256 128.578 47.36 128.386 47.36C128.098 47.36 127.858 47.256 127.666 47.048C127.49 46.84 127.402 46.568 127.402 46.232C127.402 45.96 127.466 45.728 127.594 45.536C127.738 45.328 127.97 45.136 128.29 44.96C128.85 44.656 129.514 44.416 130.282 44.24C131.066 44.064 131.834 43.976 132.586 43.976ZM131.842 54.032C132.642 54.032 133.29 53.768 133.786 53.24C134.298 52.696 134.554 52 134.554 51.152V50.648H134.122C133.05 50.648 132.218 50.696 131.626 50.792C131.034 50.888 130.61 51.056 130.354 51.296C130.098 51.536 129.97 51.864 129.97 52.28C129.97 52.792 130.146 53.216 130.498 53.552C130.866 53.872 131.314 54.032 131.842 54.032ZM148.642 44.888C148.77 44.6 148.938 44.392 149.146 44.264C149.37 44.12 149.61 44.048 149.866 44.048C150.234 44.048 150.562 44.176 150.85 44.432C151.154 44.672 151.306 44.976 151.306 45.344C151.306 45.52 151.258 45.704 151.162 45.896L144.61 59.624C144.338 60.168 143.914 60.44 143.338 60.44C142.97 60.44 142.642 60.32 142.354 60.08C142.082 59.856 141.946 59.568 141.946 59.216C141.946 59.04 141.994 58.84 142.09 58.616L143.722 55.184L139.258 45.896C139.178 45.736 139.138 45.552 139.138 45.344C139.138 44.976 139.29 44.664 139.594 44.408C139.914 44.152 140.274 44.024 140.674 44.024C140.946 44.024 141.194 44.096 141.418 44.24C141.642 44.368 141.818 44.576 141.946 44.864L145.306 52.28L148.642 44.888ZM172.687 38.96C173.135 38.96 173.487 39.104 173.743 39.392C174.015 39.664 174.151 40.032 174.151 40.496V54.584C174.151 55.048 174.015 55.424 173.743 55.712C173.471 56 173.119 56.144 172.687 56.144C172.175 56.144 171.783 55.96 171.511 55.592L162.751 44.192V54.584C162.751 55.048 162.623 55.424 162.367 55.712C162.111 56 161.759 56.144 161.311 56.144C160.863 56.144 160.511 56 160.255 55.712C159.999 55.424 159.871 55.048 159.871 54.584V40.496C159.871 40.032 160.007 39.664 160.279 39.392C160.551 39.104 160.911 38.96 161.359 38.96C161.855 38.96 162.239 39.144 162.511 39.512L171.247 50.864V40.496C171.247 40.032 171.375 39.664 171.631 39.392C171.903 39.104 172.255 38.96 172.687 38.96ZM182.889 56.192C181.689 56.192 180.633 55.944 179.721 55.448C178.825 54.952 178.129 54.24 177.633 53.312C177.137 52.384 176.889 51.304 176.889 50.072C176.889 48.84 177.137 47.768 177.633 46.856C178.129 45.928 178.825 45.216 179.721 44.72C180.633 44.224 181.689 43.976 182.889 43.976C184.089 43.976 185.137 44.224 186.033 44.72C186.945 45.216 187.641 45.928 188.121 46.856C188.617 47.768 188.865 48.84 188.865 50.072C188.865 51.304 188.617 52.384 188.121 53.312C187.641 54.24 186.945 54.952 186.033 55.448C185.137 55.944 184.089 56.192 182.889 56.192ZM182.865 53.864C183.841 53.864 184.585 53.544 185.097 52.904C185.609 52.264 185.865 51.32 185.865 50.072C185.865 48.84 185.609 47.904 185.097 47.264C184.585 46.608 183.849 46.28 182.889 46.28C181.929 46.28 181.185 46.608 180.657 47.264C180.145 47.904 179.889 48.84 179.889 50.072C179.889 51.32 180.145 52.264 180.657 52.904C181.169 53.544 181.905 53.864 182.865 53.864ZM207.018 44.912C207.13 44.624 207.29 44.408 207.498 44.264C207.722 44.12 207.962 44.048 208.218 44.048C208.586 44.048 208.914 44.176 209.202 44.432C209.506 44.672 209.658 44.976 209.658 45.344C209.658 45.552 209.618 45.736 209.538 45.896L205.578 55.184C205.45 55.488 205.25 55.72 204.978 55.88C204.722 56.04 204.434 56.12 204.114 56.12C203.81 56.12 203.522 56.04 203.25 55.88C202.994 55.72 202.802 55.488 202.674 55.184L199.818 48.32L197.058 55.184C196.93 55.488 196.73 55.72 196.458 55.88C196.202 56.04 195.914 56.12 195.594 56.12C195.29 56.12 195.002 56.04 194.73 55.88C194.458 55.72 194.258 55.488 194.13 55.184L190.194 45.896C190.114 45.688 190.074 45.512 190.074 45.368C190.074 45 190.234 44.688 190.554 44.432C190.874 44.16 191.226 44.024 191.61 44.024C191.882 44.024 192.13 44.096 192.354 44.24C192.578 44.384 192.746 44.6 192.858 44.888L195.69 52.208L198.594 44.96C198.722 44.656 198.906 44.432 199.146 44.288C199.386 44.128 199.65 44.048 199.938 44.048C200.226 44.048 200.49 44.128 200.73 44.288C200.97 44.432 201.154 44.656 201.282 44.96L204.21 52.232L207.018 44.912Z" fill="#3D3D3D"/>
<defs>
<filter id="filter0_d_1_136" x="0" y="0" width="112" height="112" filterUnits="userSpaceOnUse" color-interpolation-filters="sRGB">
<feFlood flood-opacity="0" result="BackgroundImageFix"/>
<feColorMatrix in="SourceAlpha" type="matrix" values="0 0 0 0 0 0 0 0 0 0 0 0 0 0 0 0 0 0 127 0" result="hardAlpha"/>
<feOffset dy="8"/>
<feGaussianBlur stdDeviation="12"/>
<feColorMatrix type="matrix" values="0 0 0 0 0.1216 0 0 0 0 0.1216 0 0 0 0 0.1984 0 0 0 0.06 0"/>
<feBlend mode="normal" in2="BackgroundImageFix" result="effect1_dropShadow_1_136"/>
<feBlend mode="normal" in="SourceGraphic" in2="effect1_dropShadow_1_136" result="shape"/>
</filter>
<filter id="filter1_d_1_136" x="0" y="0" width="112" height="112" filterUnits="userSpaceOnUse" color-interpolation-filters="sRGB">
<feFlood flood-opacity="0" result="BackgroundImageFix"/>
<feColorMatrix in="SourceAlpha" type="matrix" values="0 0 0 0 0 0 0 0 0 0 0 0 0 0 0 0 0 0 127 0" result="hardAlpha"/>
<feOffset dy="8"/>
<feGaussianBlur stdDeviation="12"/>
<feColorMatrix type="matrix" values="0 0 0 0 0.996078 0 0 0 0 0.447059 0 0 0 0 0.266667 0 0 0 0.08 0"/>
<feBlend mode="normal" in2="BackgroundImageFix" result="effect1_dropShadow_1_136"/>
<feBlend mode="normal" in="SourceGraphic" in2="effect1_dropShadow_1_136" result="shape"/>
</filter>
<linearGradient id="paint0_linear_1_136" x1="56" y1="16" x2="56" y2="80" gradientUnits="userSpaceOnUse">
<stop stop-color="white"/>
<stop offset="1" stop-color="white" stop-opacity="0.81"/>
</linearGradient>
<radialGradient id="paint1_radial_1_136" cx="0" cy="0" r="1" gradientUnits="userSpaceOnUse" gradientTransform="translate(56 48) rotate(90) scale(32)">
<stop stop-color="white" stop-opacity="0.9"/>
<stop offset="1" stop-color="white"/>
</radialGradient>
</defs>
</svg>
