<svg width="124" height="19" viewBox="0 0 124 19" fill="none" xmlns="http://www.w3.org/2000/svg">
<path d="M10.5978 0.369935C10.4855 0.143412 10.2538 0 10 0C9.74624 0 9.51448 0.143412 9.40218 0.369935L6.67301 5.87475L0.570878 6.75686C0.319741 6.79316 0.111089 6.96825 0.0326578 7.2085C-0.045773 7.44875 0.0196215 7.71249 0.201343 7.88882L4.61702 12.1735L3.57433 18.2242C3.53143 18.4731 3.63424 18.7248 3.83955 18.8733C4.04485 19.0217 4.31703 19.0413 4.54164 18.9238L10 16.067L15.4584 18.9238C15.683 19.0413 15.9552 19.0217 16.1605 18.8733C16.3658 18.7248 16.4686 18.4731 16.4257 18.2242L15.383 12.1735L19.7987 7.88882C19.9804 7.71249 20.0458 7.44875 19.9673 7.2085C19.8889 6.96825 19.6803 6.79316 19.4291 6.75686L13.327 5.87475L10.5978 0.369935Z" fill="#F5BE3D"/>
<path d="M36.5978 0.369935C36.4855 0.143412 36.2538 0 36 0C35.7462 0 35.5145 0.143412 35.4022 0.369935L32.673 5.87475L26.5709 6.75686C26.3197 6.79316 26.1111 6.96825 26.0327 7.2085C25.9542 7.44875 26.0196 7.71249 26.2013 7.88882L30.617 12.1735L29.5743 18.2242C29.5314 18.4731 29.6342 18.7248 29.8395 18.8733C30.0448 19.0217 30.317 19.0413 30.5416 18.9238L36 16.067L41.4584 18.9238C41.683 19.0413 41.9552 19.0217 42.1605 18.8733C42.3658 18.7248 42.4686 18.4731 42.4257 18.2242L41.383 12.1735L45.7987 7.88882C45.9804 7.71249 46.0458 7.44875 45.9673 7.2085C45.8889 6.96825 45.6803 6.79316 45.4291 6.75686L39.327 5.87475L36.5978 0.369935Z" fill="#F5BE3D"/>
<path d="M62.5978 0.369935C62.4855 0.143412 62.2538 0 62 0C61.7462 0 61.5145 0.143412 61.4022 0.369935L58.673 5.87475L52.5709 6.75686C52.3197 6.79316 52.1111 6.96825 52.0327 7.2085C51.9542 7.44875 52.0196 7.71249 52.2013 7.88882L56.617 12.1735L55.5743 18.2242C55.5314 18.4731 55.6342 18.7248 55.8395 18.8733C56.0448 19.0217 56.317 19.0413 56.5416 18.9238L62 16.067L67.4584 18.9238C67.683 19.0413 67.9552 19.0217 68.1605 18.8733C68.3658 18.7248 68.4686 18.4731 68.4257 18.2242L67.383 12.1735L71.7987 7.88882C71.9804 7.71249 72.0458 7.44875 71.9673 7.2085C71.8889 6.96825 71.6803 6.79316 71.4291 6.75686L65.327 5.87475L62.5978 0.369935Z" fill="#F5BE3D"/>
<path d="M88.5978 0.369935C88.4855 0.143412 88.2538 0 88 0C87.7462 0 87.5145 0.143412 87.4022 0.369935L84.673 5.87475L78.5709 6.75686C78.3197 6.79316 78.1111 6.96825 78.0327 7.2085C77.9542 7.44875 78.0196 7.71249 78.2013 7.88882L82.617 12.1735L81.5743 18.2242C81.5314 18.4731 81.6342 18.7248 81.8395 18.8733C82.0448 19.0217 82.317 19.0413 82.5416 18.9238L88 16.067L93.4584 18.9238C93.683 19.0413 93.9552 19.0217 94.1605 18.8733C94.3658 18.7248 94.4686 18.4731 94.4257 18.2242L93.383 12.1735L97.7987 7.88882C97.9804 7.71249 98.0458 7.44875 97.9673 7.2085C97.8889 6.96825 97.6803 6.79316 97.4291 6.75686L91.327 5.87475L88.5978 0.369935Z" fill="#F5BE3D"/>
<path d="M114.598 0.369935C114.486 0.143412 114.254 0 114 0C113.746 0 113.514 0.143412 113.402 0.369935L110.673 5.87475L104.571 6.75686C104.32 6.79316 104.111 6.96825 104.033 7.2085C103.954 7.44875 104.02 7.71249 104.201 7.88882L108.617 12.1735L107.574 18.2242C107.531 18.4731 107.634 18.7248 107.84 18.8733C108.045 19.0217 108.317 19.0413 108.542 18.9238L114 16.067L119.458 18.9238C119.683 19.0413 119.955 19.0217 120.16 18.8733C120.366 18.7248 120.469 18.4731 120.426 18.2242L119.383 12.1735L123.799 7.88882C123.98 7.71249 124.046 7.44875 123.967 7.2085C123.889 6.96825 123.68 6.79316 123.429 6.75686L117.327 5.87475L114.598 0.369935Z" fill="#D0D0D0"/>
</svg>
