<svg width="97" height="98" viewBox="0 0 97 98" fill="none" xmlns="http://www.w3.org/2000/svg">
<circle cx="48.4605" cy="48.7434" r="48.4605" fill="url(#paint0_linear_1_185)"/>
<g clip-path="url(#clip0_1_185)">
<path d="M72.9999 48.997C72.9989 48.5102 72.746 48.0585 72.3316 47.8029L67.4534 44.7958L72.3367 41.7563C72.7486 41.5 72.9992 41.0496 72.9999 40.5646C73.0007 40.0795 72.7514 39.6283 72.3403 39.3708L49.7466 25.2146C49.29 24.9285 48.7099 24.9285 48.2533 25.2146L25.6596 39.3708C25.2486 39.6283 24.9993 40.0795 25 40.5646C25.0008 41.0497 25.2513 41.5001 25.6632 41.7563L30.513 44.7749L25.661 47.8076C25.2495 48.0648 24.9996 48.5161 25.0001 49.0014C25.0006 49.4867 25.2513 49.9375 25.6633 50.194L30.5131 53.2125L25.661 56.2451C25.2501 56.5019 25.0004 56.9522 25.0001 57.4368C24.9998 57.9214 25.2491 58.372 25.6597 58.6292L48.2534 72.7854C48.4818 72.9285 48.7409 73 49 73C49.2591 73 49.5183 72.9285 49.7466 72.7854L72.3403 58.6292C72.7522 58.3711 73.0017 57.9185 72.9999 57.4324C72.9981 56.9463 72.7454 56.4956 72.3316 56.2405L67.4534 53.2334L72.3367 50.1939C72.7501 49.9367 73.0009 49.4838 72.9999 48.997ZM29.0612 40.5587L49 28.0659L68.9388 40.5587C68.7471 40.6779 49.5714 52.613 49 52.9687L29.0612 40.5587ZM68.9296 57.4473L49 69.9343L29.0573 57.4391L33.1719 54.8674L48.2569 64.2564C48.4844 64.398 48.7422 64.4688 49 64.4688C49.2578 64.4688 49.5156 64.398 49.7431 64.2564L64.7865 54.8933L68.9296 57.4473ZM49 61.4062L29.0636 48.9977L33.1719 46.4299L48.2569 55.819C48.4844 55.9605 48.7422 56.0313 49 56.0313C49.2578 56.0313 49.5156 55.9605 49.7431 55.819L64.7865 46.4558L68.9232 49.0058C68.8089 49.077 49.5278 61.0776 49 61.4062Z" fill="white" stroke="white" stroke-width="0.5"/>
</g>
<defs>
<linearGradient id="paint0_linear_1_185" x1="-5.19627e-07" y1="45.5127" x2="94.5981" y2="45.9348" gradientUnits="userSpaceOnUse">
<stop stop-color="#47C2FF"/>
<stop offset="1" stop-color="#63CBFE" stop-opacity="0.65"/>
</linearGradient>
<clipPath id="clip0_1_185">
<rect width="48" height="48" fill="white" transform="translate(25 25)"/>
</clipPath>
</defs>
</svg>
