<svg width="97" height="97" viewBox="0 0 97 97" fill="none" xmlns="http://www.w3.org/2000/svg">
<circle cx="48.4605" cy="48.4605" r="48.4605" fill="url(#paint0_linear_1_221)"/>
<path d="M50.2233 43.4688C51.483 43.4688 52.3945 44.6619 52.0525 45.8645L47.7942 60.8455C47.5631 61.6577 46.8157 62.2188 45.9642 62.2188C44.7045 62.2188 43.793 61.0256 44.135 59.823L48.3933 44.842C48.6244 44.0298 49.3718 43.4688 50.2233 43.4688ZM35.7554 52.4493L40.3923 48.5616C41.1855 47.8966 41.2896 46.7137 40.6245 45.9202C39.9591 45.127 38.7766 45.0229 37.983 45.688L33.3398 49.5808C33.3369 49.5834 33.3336 49.5859 33.3307 49.5885C32.3459 50.4249 31.7812 51.6455 31.7812 52.9375C31.7812 54.2295 32.3459 55.4501 33.3307 56.2865C33.3336 56.2887 33.3365 56.2916 33.3398 56.2942L37.9827 60.1866C38.3342 60.4814 38.7612 60.625 39.1864 60.625C39.7218 60.625 40.2535 60.3969 40.6241 59.9548C41.2896 59.1613 41.1855 57.9784 40.392 57.3134L35.7554 53.4257C35.5605 53.2583 35.5312 53.0481 35.5312 52.9375C35.5312 52.8269 35.5605 52.6167 35.7554 52.4493ZM60.1428 53.4326L55.5934 57.3254C54.8068 57.9985 54.7145 59.1821 55.3879 59.9691C55.7589 60.4023 56.2844 60.625 56.8136 60.625C57.2446 60.625 57.6782 60.4771 58.0316 60.1746L62.5756 56.2861C63.5603 55.4501 64.125 54.2295 64.125 52.9375C64.125 51.6455 63.5603 50.4249 62.5807 49.5933L58.0316 45.7004C57.2446 45.027 56.061 45.1193 55.3879 45.9059C54.7145 46.6929 54.8068 47.8765 55.5934 48.5496L60.1479 52.4468C60.3453 52.6145 60.375 52.8262 60.375 52.9375C60.375 53.0485 60.3457 53.2601 60.1428 53.4326ZM72 32.5V54.25C72 55.2856 71.1606 56.125 70.125 56.125C69.0894 56.125 68.25 55.2856 68.25 54.25V38.2188H27.75V63.625C27.75 65.6926 29.4324 67.375 31.5 67.375H64.5C66.5676 67.375 68.25 65.6926 68.25 63.625C68.25 62.5894 69.0894 61.75 70.125 61.75C71.1606 61.75 72 62.5894 72 63.625C72 67.7606 68.6356 71.125 64.5 71.125H31.5C27.3644 71.125 24 67.7606 24 63.625V32.5C24 29.3982 26.5232 26.875 29.625 26.875H66.375C69.4768 26.875 72 29.3982 72 32.5ZM56.9062 32.5C56.9062 33.5338 57.7474 34.375 58.7812 34.375C59.8151 34.375 60.6562 33.5338 60.6562 32.5C60.6562 31.4662 59.8151 30.625 58.7812 30.625C57.7474 30.625 56.9062 31.4662 56.9062 32.5ZM66.2812 30.625C65.2474 30.625 64.4062 31.4662 64.4062 32.5C64.4062 33.5338 65.2474 34.375 66.2812 34.375C67.3151 34.375 68.1562 33.5338 68.1562 32.5C68.1562 31.4662 67.3151 30.625 66.2812 30.625ZM27.75 34.4688H53.5126C53.2826 33.8557 53.1562 33.1925 53.1562 32.5C53.1562 31.8427 53.2705 31.212 53.4789 30.625H29.625C28.5912 30.625 27.75 31.4662 27.75 32.5V34.4688Z" fill="white"/>
<defs>
<linearGradient id="paint0_linear_1_221" x1="-6.07812e-07" y1="45.2298" x2="169.421" y2="43.6871" gradientUnits="userSpaceOnUse">
<stop stop-color="#79E28A"/>
<stop offset="1" stop-color="#79E2B1" stop-opacity="0.65"/>
</linearGradient>
</defs>
</svg>
